<?xml version="1.0" encoding="UTF-8" standalone="no"?>
<svg width="256.469mm" height="122.767mm"
 viewBox="0 0 727 348"
 xmlns="http://www.w3.org/2000/svg" xmlns:xlink="http://www.w3.org/1999/xlink"  version="1.2" baseProfile="tiny">
<title>Qt SVG Document</title>
<desc>MATLAB, The MathWorks, Inc. Version 25.1.0.2943329 R2025a</desc>
<defs>
</defs>
<g fill="none" stroke="black" stroke-width="1" fill-rule="evenodd" stroke-linecap="square" stroke-linejoin="bevel" >

<g fill="#ffffff" fill-opacity="1" stroke="none" transform="matrix(0.5,0,0,0.5,-6.5,-9.75)"
font-family=".AppleSystemUIFont" font-size="13" font-weight="400" font-style="normal" 
>
<path vector-effect="none" fill-rule="evenodd" d="M11,18 L1465,18 L1465,715 L11,715 L11,18"/>
</g>

<g fill="#000000" fill-opacity="1" stroke="#000000" stroke-opacity="1" stroke-width="1" stroke-linecap="square" stroke-linejoin="bevel" transform="matrix(0.5,0,0,0.5,224.625,16)"
font-family="Helvetica" font-size="40" font-weight="400" font-style="normal" 
>
<text fill="#000000" fill-opacity="1" stroke="none" xml:space="preserve" x="0" y="-0.203125" font-family="Helvetica" font-size="40" font-weight="400" font-style="normal" 
 >RVN -- observed vs predicted rate</text>
</g>

<g fill="#000000" fill-opacity="1" stroke="#000000" stroke-opacity="1" stroke-width="1" stroke-linecap="square" stroke-linejoin="bevel" transform="matrix(0.5,0,0,0.5,25.875,38.25)"
font-family="Helvetica" font-size="40" font-weight="400" font-style="normal" 
>
<text fill="#000000" fill-opacity="1" stroke="none" xml:space="preserve" x="0" y="-0.203125" font-family="Helvetica" font-size="40" font-weight="400" font-style="normal" 
 >Check1 (M50xE100&gt;M100xE100): FAIL   Check2 (M100xE10&gt;M50xE10): FAIL</text>
</g>

<g fill="#ffffff" fill-opacity="1" stroke="none" transform="matrix(5e-05,0,0,5e-05,-6.5,-9.75)"
font-family="Helvetica" font-size="40" font-weight="400" font-style="normal" 
>
<path vector-effect="none" fill-rule="evenodd" d="M1.11e+06,1.68e+06 L1.11e+06,6.08e+06 L6.99e+06,6.08e+06 L6.99e+06,1.68e+06 L1.11e+06,1.68e+06"/>
</g>

<g fill="#000000" fill-opacity="0.25098" stroke="#000000" stroke-opacity="0.25098" stroke-width="2" stroke-linecap="butt" stroke-linejoin="round" transform="matrix(0.5,0,0,0.5,-6.5,-9.75)"
font-family="Helvetica" font-size="40" font-weight="400" font-style="normal" 
>
<polyline fill="none" vector-effect="none" points="111,168 111,608 " />
<polyline fill="none" vector-effect="none" points="258,168 258,608 " />
<polyline fill="none" vector-effect="none" points="405,168 405,608 " />
<polyline fill="none" vector-effect="none" points="552,168 552,608 " />
<polyline fill="none" vector-effect="none" points="699,168 699,608 " />
<polyline fill="none" vector-effect="none" points="111,553 699,553 " />
<polyline fill="none" vector-effect="none" points="111,443 699,443 " />
<polyline fill="none" vector-effect="none" points="111,333 699,333 " />
<polyline fill="none" vector-effect="none" points="111,223 699,223 " />
</g>

<g fill="#000000" fill-opacity="1" stroke="#000000" stroke-opacity="1" stroke-width="1" stroke-linecap="square" stroke-linejoin="bevel" transform="matrix(0.5,0,0,0.5,100.5,341.75)"
font-family="Times New Roman" font-size="40" font-weight="400" font-style="normal" 
>
<text fill="#000000" fill-opacity="1" stroke="none" xml:space="preserve" x="0" y="-0.359375" font-family="Times New Roman" font-size="40" font-weight="400" font-style="normal" 
 >predicted rate\_hat (Hz)</text>
</g>

<g fill="#000000" fill-opacity="1" stroke="#000000" stroke-opacity="1" stroke-width="2" stroke-linecap="square" stroke-linejoin="round" transform="matrix(0.5,0,0,0.5,-6.5,-9.75)"
font-family="Times New Roman" font-size="40" font-weight="400" font-style="normal" 
>
<polyline fill="none" vector-effect="none" points="111,608 699,608 " />
<polyline fill="none" vector-effect="none" points="111,608 111,599.18 " />
<polyline fill="none" vector-effect="none" points="258,608 258,599.18 " />
<polyline fill="none" vector-effect="none" points="405,608 405,599.18 " />
<polyline fill="none" vector-effect="none" points="552,608 552,599.18 " />
<polyline fill="none" vector-effect="none" points="699,608 699,599.18 " />
</g>

<g fill="#000000" fill-opacity="1" stroke="#000000" stroke-opacity="1" stroke-width="1" stroke-linecap="square" stroke-linejoin="bevel" transform="matrix(0.5,0,0,0.5,44,318.25)"
font-family="Times New Roman" font-size="40" font-weight="400" font-style="normal" 
>
<text fill="#000000" fill-opacity="1" stroke="none" xml:space="preserve" x="0" y="-0.359375" font-family="Times New Roman" font-size="40" font-weight="400" font-style="normal" 
 >5</text>
</g>

<g fill="#000000" fill-opacity="1" stroke="#000000" stroke-opacity="1" stroke-width="1" stroke-linecap="square" stroke-linejoin="bevel" transform="matrix(0.5,0,0,0.5,112.5,318.25)"
font-family="Times New Roman" font-size="40" font-weight="400" font-style="normal" 
>
<text fill="#000000" fill-opacity="1" stroke="none" xml:space="preserve" x="0" y="-0.359375" font-family="Times New Roman" font-size="40" font-weight="400" font-style="normal" 
 >10</text>
</g>

<g fill="#000000" fill-opacity="1" stroke="#000000" stroke-opacity="1" stroke-width="1" stroke-linecap="square" stroke-linejoin="bevel" transform="matrix(0.5,0,0,0.5,186,318.25)"
font-family="Times New Roman" font-size="40" font-weight="400" font-style="normal" 
>
<text fill="#000000" fill-opacity="1" stroke="none" xml:space="preserve" x="0" y="-0.359375" font-family="Times New Roman" font-size="40" font-weight="400" font-style="normal" 
 >15</text>
</g>

<g fill="#000000" fill-opacity="1" stroke="#000000" stroke-opacity="1" stroke-width="1" stroke-linecap="square" stroke-linejoin="bevel" transform="matrix(0.5,0,0,0.5,259.5,318.25)"
font-family="Times New Roman" font-size="40" font-weight="400" font-style="normal" 
>
<text fill="#000000" fill-opacity="1" stroke="none" xml:space="preserve" x="0" y="-0.359375" font-family="Times New Roman" font-size="40" font-weight="400" font-style="normal" 
 >20</text>
</g>

<g fill="#000000" fill-opacity="1" stroke="#000000" stroke-opacity="1" stroke-width="1" stroke-linecap="square" stroke-linejoin="bevel" transform="matrix(0.5,0,0,0.5,333,318.25)"
font-family="Times New Roman" font-size="40" font-weight="400" font-style="normal" 
>
<text fill="#000000" fill-opacity="1" stroke="none" xml:space="preserve" x="0" y="-0.359375" font-family="Times New Roman" font-size="40" font-weight="400" font-style="normal" 
 >25</text>
</g>

<g fill="#000000" fill-opacity="1" stroke="#000000" stroke-opacity="1" stroke-width="1" stroke-linecap="square" stroke-linejoin="bevel" transform="matrix(0,-0.5,0.5,0,15.5,258.75)"
font-family="Times New Roman" font-size="40" font-weight="400" font-style="normal" 
>
<text fill="#000000" fill-opacity="1" stroke="none" xml:space="preserve" x="0" y="-0.359375" font-family="Times New Roman" font-size="40" font-weight="400" font-style="normal" 
 >observed rate (Hz)</text>
</g>

<g fill="#000000" fill-opacity="1" stroke="#000000" stroke-opacity="1" stroke-width="2" stroke-linecap="square" stroke-linejoin="round" transform="matrix(0.5,0,0,0.5,-6.5,-9.75)"
font-family="Times New Roman" font-size="40" font-weight="400" font-style="normal" 
>
<polyline fill="none" vector-effect="none" points="111,608 111,168 " />
<polyline fill="none" vector-effect="none" points="111,553 119.82,553 " />
<polyline fill="none" vector-effect="none" points="111,443 119.82,443 " />
<polyline fill="none" vector-effect="none" points="111,333 119.82,333 " />
<polyline fill="none" vector-effect="none" points="111,223 119.82,223 " />
</g>

<g fill="#000000" fill-opacity="1" stroke="#000000" stroke-opacity="1" stroke-width="1" stroke-linecap="square" stroke-linejoin="bevel" transform="matrix(0.5,0,0,0.5,23,273.5)"
font-family="Times New Roman" font-size="40" font-weight="400" font-style="normal" 
>
<text fill="#000000" fill-opacity="1" stroke="none" xml:space="preserve" x="0" y="-0.359375" font-family="Times New Roman" font-size="40" font-weight="400" font-style="normal" 
 >10</text>
</g>

<g fill="#000000" fill-opacity="1" stroke="#000000" stroke-opacity="1" stroke-width="1" stroke-linecap="square" stroke-linejoin="bevel" transform="matrix(0.5,0,0,0.5,23,218.5)"
font-family="Times New Roman" font-size="40" font-weight="400" font-style="normal" 
>
<text fill="#000000" fill-opacity="1" stroke="none" xml:space="preserve" x="0" y="-0.359375" font-family="Times New Roman" font-size="40" font-weight="400" font-style="normal" 
 >20</text>
</g>

<g fill="#000000" fill-opacity="1" stroke="#000000" stroke-opacity="1" stroke-width="1" stroke-linecap="square" stroke-linejoin="bevel" transform="matrix(0.5,0,0,0.5,23,163.5)"
font-family="Times New Roman" font-size="40" font-weight="400" font-style="normal" 
>
<text fill="#000000" fill-opacity="1" stroke="none" xml:space="preserve" x="0" y="-0.359375" font-family="Times New Roman" font-size="40" font-weight="400" font-style="normal" 
 >30</text>
</g>

<g fill="#000000" fill-opacity="1" stroke="#000000" stroke-opacity="1" stroke-width="1" stroke-linecap="square" stroke-linejoin="bevel" transform="matrix(0.5,0,0,0.5,23,108.5)"
font-family="Times New Roman" font-size="40" font-weight="400" font-style="normal" 
>
<text fill="#000000" fill-opacity="1" stroke="none" xml:space="preserve" x="0" y="-0.359375" font-family="Times New Roman" font-size="40" font-weight="400" font-style="normal" 
 >40</text>
</g>

<g fill="#000000" fill-opacity="1" stroke="#000000" stroke-opacity="1" stroke-width="1" stroke-linecap="square" stroke-linejoin="bevel" transform="matrix(0.5,0,0,0.5,130,67.25)"
font-family="Times New Roman" font-size="40" font-weight="400" font-style="normal" 
>
<text fill="#000000" fill-opacity="1" stroke="none" xml:space="preserve" x="0" y="-0.359375" font-family="Times New Roman" font-size="40" font-weight="400" font-style="normal" 
 >Stage 1: E-alone</text>
</g>

<g fill="#0072bd" fill-opacity="1" stroke="none" transform="matrix(0.5,0,0,0.5,-6.5,-9.75)"
font-family="Times New Roman" font-size="40" font-weight="400" font-style="normal" 
>
<circle cx="616.137" cy="524.543" r="7.74597"/>
<circle cx="616.137" cy="211.484" r="7.74597"/>
<circle cx="616.137" cy="503.065" r="7.74597"/>
<circle cx="557.09" cy="563.06" r="7.74597"/>
<circle cx="557.09" cy="308.516" r="7.74597"/>
<circle cx="557.09" cy="501.937" r="7.74597"/>
<circle cx="160.899" cy="566.346" r="7.74597"/>
<circle cx="160.899" cy="582.811" r="7.74597"/>
<circle cx="160.899" cy="526.886" r="7.74597"/>
</g>

<g fill="#000000" fill-opacity="1" stroke="#000000" stroke-opacity="1" stroke-dasharray="16,16" stroke-dashoffset="0" stroke-width="4" stroke-linecap="butt" stroke-linejoin="round" transform="matrix(0.5,0,0,0.5,-6.5,-9.75)"
font-family="Times New Roman" font-size="40" font-weight="400" font-style="normal" 
>
<polyline fill="none" vector-effect="none" points="111,608 699,388 " />
</g>

<g fill="#ffffff" fill-opacity="1" stroke="none" transform="matrix(5e-05,0,0,5e-05,-6.5,-9.75)"
font-family="Times New Roman" font-size="40" font-weight="400" font-style="normal" 
>
<path vector-effect="none" fill-rule="evenodd" d="M8.3e+06,1.68e+06 L8.3e+06,6.08e+06 L1.417e+07,6.08e+06 L1.417e+07,1.68e+06 L8.3e+06,1.68e+06"/>
</g>

<g fill="#000000" fill-opacity="0.25098" stroke="#000000" stroke-opacity="0.25098" stroke-width="2" stroke-linecap="butt" stroke-linejoin="round" transform="matrix(0.5,0,0,0.5,-6.5,-9.75)"
font-family="Times New Roman" font-size="40" font-weight="400" font-style="normal" 
>
<polyline fill="none" vector-effect="none" points="830,168 830,608 " />
<polyline fill="none" vector-effect="none" points="976.75,168 976.75,608 " />
<polyline fill="none" vector-effect="none" points="1123.5,168 1123.5,608 " />
<polyline fill="none" vector-effect="none" points="1270.25,168 1270.25,608 " />
<polyline fill="none" vector-effect="none" points="1417,168 1417,608 " />
<polyline fill="none" vector-effect="none" points="830,608 1417,608 " />
<polyline fill="none" vector-effect="none" points="830,461.333 1417,461.333 " />
<polyline fill="none" vector-effect="none" points="830,314.667 1417,314.667 " />
<polyline fill="none" vector-effect="none" points="830,168 1417,168 " />
</g>

<g fill="#000000" fill-opacity="1" stroke="#000000" stroke-opacity="1" stroke-width="1" stroke-linecap="square" stroke-linejoin="bevel" transform="matrix(0.5,0,0,0.5,459.75,341.75)"
font-family="Times New Roman" font-size="40" font-weight="400" font-style="normal" 
>
<text fill="#000000" fill-opacity="1" stroke="none" xml:space="preserve" x="0" y="-0.359375" font-family="Times New Roman" font-size="40" font-weight="400" font-style="normal" 
 >predicted rate\_hat (Hz)</text>
</g>

<g fill="#000000" fill-opacity="1" stroke="#000000" stroke-opacity="1" stroke-width="2" stroke-linecap="square" stroke-linejoin="round" transform="matrix(0.5,0,0,0.5,-6.5,-9.75)"
font-family="Times New Roman" font-size="40" font-weight="400" font-style="normal" 
>
<polyline fill="none" vector-effect="none" points="830,608 1417,608 " />
<polyline fill="none" vector-effect="none" points="830,608 830,599.195 " />
<polyline fill="none" vector-effect="none" points="976.75,608 976.75,599.195 " />
<polyline fill="none" vector-effect="none" points="1123.5,608 1123.5,599.195 " />
<polyline fill="none" vector-effect="none" points="1270.25,608 1270.25,599.195 " />
<polyline fill="none" vector-effect="none" points="1417,608 1417,599.195 " />
</g>

<g fill="#000000" fill-opacity="1" stroke="#000000" stroke-opacity="1" stroke-width="1" stroke-linecap="square" stroke-linejoin="bevel" transform="matrix(0.5,0,0,0.5,403.5,318.25)"
font-family="Times New Roman" font-size="40" font-weight="400" font-style="normal" 
>
<text fill="#000000" fill-opacity="1" stroke="none" xml:space="preserve" x="0" y="-0.359375" font-family="Times New Roman" font-size="40" font-weight="400" font-style="normal" 
 >5</text>
</g>

<g fill="#000000" fill-opacity="1" stroke="#000000" stroke-opacity="1" stroke-width="1" stroke-linecap="square" stroke-linejoin="bevel" transform="matrix(0.5,0,0,0.5,471.875,318.25)"
font-family="Times New Roman" font-size="40" font-weight="400" font-style="normal" 
>
<text fill="#000000" fill-opacity="1" stroke="none" xml:space="preserve" x="0" y="-0.359375" font-family="Times New Roman" font-size="40" font-weight="400" font-style="normal" 
 >10</text>
</g>

<g fill="#000000" fill-opacity="1" stroke="#000000" stroke-opacity="1" stroke-width="1" stroke-linecap="square" stroke-linejoin="bevel" transform="matrix(0.5,0,0,0.5,545.25,318.25)"
font-family="Times New Roman" font-size="40" font-weight="400" font-style="normal" 
>
<text fill="#000000" fill-opacity="1" stroke="none" xml:space="preserve" x="0" y="-0.359375" font-family="Times New Roman" font-size="40" font-weight="400" font-style="normal" 
 >15</text>
</g>

<g fill="#000000" fill-opacity="1" stroke="#000000" stroke-opacity="1" stroke-width="1" stroke-linecap="square" stroke-linejoin="bevel" transform="matrix(0.5,0,0,0.5,618.625,318.25)"
font-family="Times New Roman" font-size="40" font-weight="400" font-style="normal" 
>
<text fill="#000000" fill-opacity="1" stroke="none" xml:space="preserve" x="0" y="-0.359375" font-family="Times New Roman" font-size="40" font-weight="400" font-style="normal" 
 >20</text>
</g>

<g fill="#000000" fill-opacity="1" stroke="#000000" stroke-opacity="1" stroke-width="1" stroke-linecap="square" stroke-linejoin="bevel" transform="matrix(0.5,0,0,0.5,692,318.25)"
font-family="Times New Roman" font-size="40" font-weight="400" font-style="normal" 
>
<text fill="#000000" fill-opacity="1" stroke="none" xml:space="preserve" x="0" y="-0.359375" font-family="Times New Roman" font-size="40" font-weight="400" font-style="normal" 
 >25</text>
</g>

<g fill="#000000" fill-opacity="1" stroke="#000000" stroke-opacity="1" stroke-width="1" stroke-linecap="square" stroke-linejoin="bevel" transform="matrix(0,-0.5,0.5,0,375,258.75)"
font-family="Times New Roman" font-size="40" font-weight="400" font-style="normal" 
>
<text fill="#000000" fill-opacity="1" stroke="none" xml:space="preserve" x="0" y="-0.359375" font-family="Times New Roman" font-size="40" font-weight="400" font-style="normal" 
 >observed rate (Hz)</text>
</g>

<g fill="#000000" fill-opacity="1" stroke="#000000" stroke-opacity="1" stroke-width="2" stroke-linecap="square" stroke-linejoin="round" transform="matrix(0.5,0,0,0.5,-6.5,-9.75)"
font-family="Times New Roman" font-size="40" font-weight="400" font-style="normal" 
>
<polyline fill="none" vector-effect="none" points="830,608 830,168 " />
<polyline fill="none" vector-effect="none" points="830,608 838.805,608 " />
<polyline fill="none" vector-effect="none" points="830,461.333 838.805,461.333 " />
<polyline fill="none" vector-effect="none" points="830,314.667 838.805,314.667 " />
<polyline fill="none" vector-effect="none" points="830,168 838.805,168 " />
</g>

<g fill="#000000" fill-opacity="1" stroke="#000000" stroke-opacity="1" stroke-width="1" stroke-linecap="square" stroke-linejoin="bevel" transform="matrix(0.5,0,0,0.5,392.5,301)"
font-family="Times New Roman" font-size="40" font-weight="400" font-style="normal" 
>
<text fill="#000000" fill-opacity="1" stroke="none" xml:space="preserve" x="0" y="-0.359375" font-family="Times New Roman" font-size="40" font-weight="400" font-style="normal" 
 >0</text>
</g>

<g fill="#000000" fill-opacity="1" stroke="#000000" stroke-opacity="1" stroke-width="1" stroke-linecap="square" stroke-linejoin="bevel" transform="matrix(0.5,0,0,0.5,382.5,227.667)"
font-family="Times New Roman" font-size="40" font-weight="400" font-style="normal" 
>
<text fill="#000000" fill-opacity="1" stroke="none" xml:space="preserve" x="0" y="-0.359375" font-family="Times New Roman" font-size="40" font-weight="400" font-style="normal" 
 >10</text>
</g>

<g fill="#000000" fill-opacity="1" stroke="#000000" stroke-opacity="1" stroke-width="1" stroke-linecap="square" stroke-linejoin="bevel" transform="matrix(0.5,0,0,0.5,382.5,154.333)"
font-family="Times New Roman" font-size="40" font-weight="400" font-style="normal" 
>
<text fill="#000000" fill-opacity="1" stroke="none" xml:space="preserve" x="0" y="-0.359375" font-family="Times New Roman" font-size="40" font-weight="400" font-style="normal" 
 >20</text>
</g>

<g fill="#000000" fill-opacity="1" stroke="#000000" stroke-opacity="1" stroke-width="1" stroke-linecap="square" stroke-linejoin="bevel" transform="matrix(0.5,0,0,0.5,382.5,81)"
font-family="Times New Roman" font-size="40" font-weight="400" font-style="normal" 
>
<text fill="#000000" fill-opacity="1" stroke="none" xml:space="preserve" x="0" y="-0.359375" font-family="Times New Roman" font-size="40" font-weight="400" font-style="normal" 
 >30</text>
</g>

<g fill="#000000" fill-opacity="1" stroke="#000000" stroke-opacity="1" stroke-width="1" stroke-linecap="square" stroke-linejoin="bevel" transform="matrix(0.5,0,0,0.5,453.25,67.25)"
font-family="Times New Roman" font-size="40" font-weight="400" font-style="normal" 
>
<text fill="#000000" fill-opacity="1" stroke="none" xml:space="preserve" x="0" y="-0.359375" font-family="Times New Roman" font-size="40" font-weight="400" font-style="normal" 
 >Stage 2: combined M x E</text>
</g>

<g fill="#0072bd" fill-opacity="1" stroke="none" transform="matrix(0.5,0,0,0.5,-6.5,-9.75)"
font-family="Times New Roman" font-size="40" font-weight="400" font-style="normal" 
>
<circle cx="879.814" cy="207.9" r="7.74597"/>
<circle cx="879.814" cy="293.597" r="7.74597"/>
<circle cx="879.814" cy="565.998" r="7.74597"/>
<circle cx="1275.33" cy="534.001" r="7.74597"/>
<circle cx="1275.33" cy="469.647" r="7.74597"/>
<circle cx="1275.33" cy="447.052" r="7.74597"/>
<circle cx="1275.33" cy="552.502" r="7.74597"/>
<circle cx="1334.28" cy="517.937" r="7.74597"/>
<circle cx="1334.28" cy="387.372" r="7.74597"/>
<circle cx="1334.28" cy="544.483" r="7.74597"/>
<circle cx="1334.28" cy="520.708" r="7.74597"/>
<circle cx="1334.28" cy="406.85" r="7.74597"/>
<circle cx="1334.28" cy="508.119" r="7.74597"/>
<circle cx="1275.33" cy="528.665" r="7.74597"/>
<circle cx="1334.28" cy="603.444" r="7.74597"/>
<circle cx="1334.28" cy="494.039" r="7.74597"/>
<circle cx="1334.28" cy="521.89" r="7.74597"/>
<circle cx="1275.33" cy="460.239" r="7.74597"/>
<circle cx="1275.33" cy="453.975" r="7.74597"/>
<circle cx="879.814" cy="388.145" r="7.74597"/>
<circle cx="879.814" cy="235.339" r="7.74597"/>
<circle cx="879.814" cy="387.764" r="7.74597"/>
<circle cx="879.814" cy="486.444" r="7.74597"/>
<circle cx="879.814" cy="556.787" r="7.74597"/>
<circle cx="879.814" cy="360.772" r="7.74597"/>
<circle cx="1275.33" cy="503.833" r="7.74597"/>
<circle cx="1275.33" cy="374.889" r="7.74597"/>
</g>

<g fill="#000000" fill-opacity="1" stroke="#000000" stroke-opacity="1" stroke-dasharray="16,16" stroke-dashoffset="0" stroke-width="4" stroke-linecap="butt" stroke-linejoin="round" transform="matrix(0.5,0,0,0.5,-6.5,-9.75)"
font-family="Times New Roman" font-size="40" font-weight="400" font-style="normal" 
>
<polyline fill="none" vector-effect="none" points="830,534.667 1417,241.333 " />
</g>
</g>
</svg>
